<?xml version="1.0" encoding="UTF-8"?>
<svg version="1.1" xmlns="http://www.w3.org/2000/svg" width="1600" height="1200">
<path d="M0 0 C5.77425259 0.00464958 11.54849341 0.00510657 17.32274735 0.00296862 C18.57892909 0.00250893 18.57892909 0.00250893 19.86048824 0.00203994 C21.56436591 0.00140017 23.26824357 0.00075174 24.97212124 0.00009476 C40.76584016 -0.00554152 56.55953546 0.00084197 72.3532505 0.01169549 C85.75948657 0.02062477 99.16568793 0.0190708 112.57192338 0.00985797 C128.32823386 -0.00096556 144.08452391 -0.00499284 159.8408376 0.00108249 C161.53673215 0.00171926 163.23262671 0.00234801 164.92852128 0.00296862 C166.17854086 0.00343145 166.17854086 0.00343145 167.45381337 0.00390363 C173.1878806 0.00559485 178.92193417 0.00275581 184.6559993 -0.00199048 C356.61052534 -0.13170414 356.61052534 -0.13170414 509.28969681 77.34872515 C510.41772542 78.49166163 511.53956721 79.6407626 512.65297806 80.7979439 C514.31178174 82.50725927 514.31178174 82.50725927 517.12563431 84.70810015 C520.14669176 87.28858672 522.60572652 89.98814892 525.16860306 93.0088814 C526.51003702 94.55916137 527.89029238 96.07644268 529.30141556 97.5635689 C541.41330316 110.34944043 551.57916592 124.89693496 560.12563431 140.27060015 C560.51670365 140.95992633 560.90777298 141.6492525 561.31069291 142.35946734 C602.82967261 215.92616642 603.30047351 304.10391982 603.27101803 386.28537269 C603.27080855 389.95801861 603.27638353 393.63065741 603.2810756 397.30329974 C603.28927045 404.45666996 603.29212536 411.61003194 603.29268797 418.76340648 C603.29316894 424.60411768 603.29525201 430.44482624 603.2983886 436.2855366 C603.30716805 452.98347337 603.31181275 469.68140379 603.31105813 486.37934288 C603.31101817 487.27359694 603.31097821 488.167851 603.31093705 489.08920367 C603.31087573 490.43229657 603.31087573 490.43229657 603.31081317 491.80252267 C603.31040843 506.24910187 603.31994161 520.69565479 603.33407541 535.14222642 C603.34860048 550.11161468 603.35533676 565.08099028 603.35448164 580.05038573 C603.35415494 588.39958994 603.35671854 596.7487664 603.36765969 605.09796412 C603.62189795 808.77256391 603.62189795 808.77256391 526.05922806 930.41903765 C524.91299979 931.55288766 523.76010763 932.68007263 522.59829056 933.7979439 C520.8889752 935.45674758 520.8889752 935.45674758 518.68813431 938.27060015 C516.10764775 941.2916576 513.40808555 943.75069236 510.38735306 946.3135689 C508.8370731 947.65500287 507.31979179 949.03525822 505.83266556 950.4463814 C493.04679403 962.55826901 478.49929951 972.72413176 463.12563431 981.27060015 C462.43630814 981.66166949 461.74698197 982.05273883 461.03676713 982.45565875 C404.59369229 1014.31054564 340.63297777 1020.79423836 277.12563431 1023.27060015 C276.07439822 1023.31218741 275.02316212 1023.35377466 273.94007039 1023.39662214 C255.30131525 1024.12000684 236.69683453 1024.42260964 218.04318237 1024.41598387 C214.34327123 1024.41577465 210.6433672 1024.42134707 206.94345963 1024.42604144 C199.73480826 1024.43424164 192.52616506 1024.43709146 185.31750941 1024.43765382 C179.43242931 1024.43813453 173.54735184 1024.4402164 167.66227257 1024.44335444 C150.84268695 1024.45213544 134.02310763 1024.45677836 117.20351969 1024.45602397 C116.30246351 1024.45598401 115.40140733 1024.45594406 114.47304642 1024.45590289 C113.57084211 1024.45586201 112.6686378 1024.45582113 111.73909397 1024.45577901 C97.18184476 1024.45537425 82.62462163 1024.46490752 68.06737994 1024.47904126 C52.98841698 1024.49356149 37.90946659 1024.50030285 22.83049649 1024.49944748 C14.41815214 1024.49912061 6.00583531 1024.50169192 -2.4065026 1024.51262553 C-207.44545589 1024.76647672 -207.44545589 1024.76647672 -327.02280319 947.2041939 C-328.15665319 946.05796563 -329.28383816 944.90507348 -330.40170944 943.7432564 C-332.06051311 942.03394104 -332.06051311 942.03394104 -334.87436569 939.83310015 C-337.89542313 937.25261359 -340.35445789 934.55305139 -342.91733444 931.5323189 C-344.2587684 929.98203894 -345.63902376 928.46475763 -347.05014694 926.9776314 C-359.16203454 914.19175988 -369.32789729 899.64426535 -377.87436569 884.27060015 C-378.26543502 883.58127398 -378.65650436 882.89194781 -379.05942428 882.18173297 C-420.57840398 808.61503389 -421.04920488 720.43728049 -421.0197494 638.25582762 C-421.01953992 634.5831817 -421.0251149 630.9105429 -421.02980697 627.23790057 C-421.03800182 620.08453035 -421.04085674 612.93116837 -421.04141935 605.77779383 C-421.04190032 599.93708263 -421.04398339 594.09637407 -421.04711998 588.25566371 C-421.05589943 571.55772694 -421.06054412 554.85979652 -421.0597895 538.16185743 C-421.05974954 537.26760337 -421.05970959 536.37334931 -421.05966842 535.45199664 C-421.05962754 534.55660137 -421.05958666 533.6612061 -421.05954454 532.73867764 C-421.0591398 518.29209844 -421.06867298 503.84554552 -421.08280679 489.39897389 C-421.09733185 474.42958563 -421.10406813 459.46021003 -421.10321301 444.49081458 C-421.10288631 436.14161037 -421.10544991 427.79243391 -421.11639106 419.44323619 C-421.37062933 215.7686364 -421.37062933 215.7686364 -343.80795944 94.12216265 C-342.66173116 92.98831265 -341.50883901 91.86112768 -340.34702194 90.7432564 C-338.63770657 89.08445273 -338.63770657 89.08445273 -336.43686569 86.27060015 C-333.85637912 83.24954271 -331.15681692 80.79050795 -328.13608444 78.2276314 C-326.58580447 76.88619744 -325.06852316 75.50594209 -323.58139694 74.0948189 C-310.79552541 61.9829313 -296.24803088 51.81706855 -280.87436569 43.27060015 C-280.18503952 42.87953082 -279.49571334 42.48846148 -278.7854985 42.08554156 C-200.52937922 -2.08001525 -105.94671883 0.07225595 0 0 Z M-100.87436569 94.14560015 C-102.26850189 94.20762622 -102.26850189 94.20762622 -103.69080245 94.27090533 C-162.00398007 96.90891021 -222.63380745 105.36793069 -266.29965866 147.74276812 C-267.85727824 149.25402136 -269.42972992 150.74861339 -271.00327194 152.2432564 C-315.82315065 195.34284794 -324.2096014 259.14707286 -326.87436569 318.27060015 C-326.95315963 319.89071002 -326.95315963 319.89071002 -327.03354537 321.54354937 C-328.99804008 362.10575055 -329.03010612 402.75632492 -329.00869119 443.35517199 C-329.00609287 449.86457939 -329.00852526 456.37398565 -329.01007736 462.88339312 C-329.01218858 474.49001121 -329.00895662 486.09662218 -329.00381802 497.70323904 C-328.99935381 508.10655591 -329.00013092 518.50986161 -329.00473678 528.91317828 C-329.01015677 541.16011136 -329.01204466 553.40703739 -329.00912452 565.65397151 C-329.00759489 572.07613087 -329.00727347 578.49828264 -329.01066101 584.92044146 C-329.02880373 624.70792184 -328.81226621 664.51682198 -326.99936569 704.27060015 C-326.95801498 705.20002429 -326.91666427 706.12944842 -326.87406051 707.08703692 C-324.23605564 765.40021454 -315.77703515 826.03004192 -273.40219772 869.69589312 C-271.89094448 871.25351271 -270.39635245 872.82596439 -268.90170944 874.3995064 C-225.70065866 919.3172024 -162.06395411 927.56677565 -102.87436569 930.27060015 C-100.8678328 930.37171775 -98.86131993 930.47323395 -96.85483444 930.57528765 C-57.18769058 932.46945176 -17.42262385 932.4259048 22.27866852 932.40492566 C28.78226359 932.40232557 35.28585752 932.40476019 41.78945267 932.40631182 C53.38506207 932.40842242 64.98066433 932.40519242 76.57627249 932.40005249 C86.96675367 932.39558836 97.35722365 932.3963655 107.74770463 932.40097125 C119.98366759 932.40639295 132.2196235 932.40827826 144.45558751 932.40535899 C150.87049799 932.40383011 157.28540088 932.40350568 163.70031083 932.40689547 C203.8853558 932.42525213 244.09961417 932.23203333 284.25063431 930.39560015 C285.17917222 930.35424945 286.10771012 930.31289874 287.06438553 930.27029498 C344.97649349 927.64756027 405.23741996 918.83134305 448.55092728 876.79843219 C450.10854687 875.28717895 451.68099855 873.79258692 453.25454056 872.2979439 C498.07441927 829.19835237 506.46087002 765.39412745 509.12563431 706.27060015 C509.17816361 705.19052691 509.23069291 704.11045367 509.284814 702.99765094 C511.24930871 662.43544976 511.28137475 621.78487539 511.25995982 581.18602832 C511.25736149 574.67662092 511.25979389 568.16721466 511.26134598 561.65780719 C511.2634572 550.0511891 511.26022524 538.44457813 511.25508665 526.83796127 C511.25062243 516.4346444 511.25139955 506.0313387 511.25600541 495.62802203 C511.26142539 483.38108895 511.26331328 471.13416292 511.26039314 458.8872288 C511.25886351 452.46506944 511.25854209 446.04291767 511.26192963 439.62075885 C511.28007235 399.83327847 511.06353483 360.02437833 509.25063431 320.27060015 C509.2092836 319.34117602 509.1679329 318.41175189 509.12532914 317.45416339 C506.48732426 259.14098577 498.02830378 198.51115839 455.65346634 154.84530719 C454.14221311 153.2876876 452.64762107 151.71523592 451.15297806 150.1416939 C407.96915701 105.24191228 344.30434931 96.93785182 285.12563431 94.27060015 C284.04556107 94.21807086 282.96548783 94.16554156 281.85268509 94.11142047 C241.29048392 92.14692576 200.63990955 92.11485972 160.04106247 92.13627465 C153.53165508 92.13887297 147.02224882 92.13644058 140.51284134 92.13488849 C128.90622325 92.13277726 117.29961228 92.13600922 105.69299543 92.14114782 C95.28967855 92.14561203 84.88637286 92.14483492 74.48305619 92.14022906 C62.2361231 92.13480907 49.98919708 92.13292118 37.74226296 92.13584132 C31.3201036 92.13737095 24.89795183 92.13769237 18.475793 92.13430484 C-21.31168737 92.11616211 -61.12058752 92.33269963 -100.87436569 94.14560015 Z " fill="#BB5D8B" transform="translate(708.8743656873703,87.72939984500408)"/>
<path d="M0 0 C0.88944305 -0.00067474 1.77888611 -0.00134949 2.69528198 -0.00204468 C17.29427641 0.01550357 31.53181629 0.71260636 45.9375 3.25 C46.85563477 3.4056543 47.77376953 3.56130859 48.71972656 3.72167969 C72.96173628 7.97570661 96.92692493 16.29552173 118.9375 27.25 C119.60201172 27.57677734 120.26652344 27.90355469 120.95117188 28.24023438 C153.2821507 44.29176767 183.88655575 68.64115412 205.9375 97.25 C207.13246094 98.75433594 207.13246094 98.75433594 208.3515625 100.2890625 C238.89346359 138.94932064 256.50526092 184.56309947 262.9375 233.25 C263.0420752 234.0025708 263.14665039 234.7551416 263.25439453 235.53051758 C264.32721238 244.40765347 264.18141508 253.38448446 264.1875 262.3125 C264.18851212 263.64666458 264.18851212 263.64666458 264.18954468 265.00778198 C264.17199643 279.60677641 263.47489364 293.84431629 260.9375 308.25 C260.7818457 309.16813477 260.62619141 310.08626953 260.46582031 311.03222656 C256.21180799 335.27415307 247.89390429 359.24031783 236.9375 381.25 C236.57301758 381.98992187 236.20853516 382.72984375 235.83300781 383.4921875 C219.80103167 415.7542401 195.49418724 446.23925826 166.9375 468.25 C165.93460938 469.04664063 164.93171875 469.84328125 163.8984375 470.6640625 C125.23817936 501.20596359 79.62440053 518.81776092 30.9375 525.25 C30.1849292 525.3545752 29.4323584 525.45915039 28.65698242 525.56689453 C19.77984653 526.63971238 10.80301554 526.49391508 1.875 526.5 C0.54083542 526.50101212 0.54083542 526.50101212 -0.82028198 526.50204468 C-15.41927641 526.48449643 -29.65681629 525.78739364 -44.0625 523.25 C-45.43970215 523.01651855 -45.43970215 523.01651855 -46.84472656 522.77832031 C-71.08673628 518.52429339 -95.05192493 510.20447827 -117.0625 499.25 C-118.05926758 498.75983398 -118.05926758 498.75983398 -119.07617188 498.25976562 C-151.4071507 482.20823233 -182.01155575 457.85884588 -204.0625 429.25 C-204.85914063 428.24710938 -205.65578125 427.24421875 -206.4765625 426.2109375 C-237.01846359 387.55067936 -254.63026092 341.93690053 -261.0625 293.25 C-261.21936279 292.1211438 -261.21936279 292.1211438 -261.37939453 290.96948242 C-262.45221238 282.09234653 -262.30641508 273.11551554 -262.3125 264.1875 C-262.31317474 263.29805695 -262.31384949 262.40861389 -262.31454468 261.49221802 C-262.29699643 246.89322359 -261.59989364 232.65568371 -259.0625 218.25 C-258.9068457 217.33186523 -258.75119141 216.41373047 -258.59082031 215.46777344 C-254.33679339 191.22576372 -246.01697827 167.26057507 -235.0625 145.25 C-234.73572266 144.58548828 -234.40894531 143.92097656 -234.07226562 143.23632812 C-218.02073233 110.9053493 -193.67134588 80.30094425 -165.0625 58.25 C-164.05960938 57.45335937 -163.05671875 56.65671875 -162.0234375 55.8359375 C-123.36317936 25.29403641 -77.74940053 7.68223908 -29.0625 1.25 C-28.3099292 1.1454248 -27.5573584 1.04084961 -26.78198242 0.93310547 C-17.90484653 -0.13971238 -8.92801554 0.00608492 0 0 Z M-123.69189453 146.02685547 C-134.40315567 158.1394795 -143.73434029 170.82028701 -151.0625 185.25 C-151.37912598 185.86552734 -151.69575195 186.48105469 -152.02197266 187.11523438 C-172.3465334 227.06387492 -174.78925903 272.58241331 -162.0625 315.25 C-154.56491416 338.05865582 -142.60332213 358.04503693 -127.0625 376.25 C-126.381875 377.054375 -125.70125 377.85875 -125 378.6875 C-120.68335673 383.67861878 -116.14983957 388.05704755 -111.0625 392.25 C-110.31516602 392.88977783 -110.31516602 392.88977783 -109.55273438 393.54248047 C-75.18273286 422.95488188 -30.22730167 437.05123567 14.76171875 433.83642578 C59.26309846 430.05520572 102.05088338 408.4436927 130.9375 374.25 C140.01953555 363.31507559 147.58940435 351.96824287 153.9375 339.25 C154.30214355 338.52200195 154.66678711 337.79400391 155.04248047 337.04394531 C174.71094429 297.06594506 176.87878339 250.61910957 163.02197266 208.46484375 C155.32044195 186.73252436 143.87997904 167.75404688 128.9375 150.25 C128.256875 149.445625 127.57625 148.64125 126.875 147.8125 C122.55835673 142.82138122 118.02483957 138.44295245 112.9375 134.25 C112.19016602 133.61022217 112.19016602 133.61022217 111.42773438 132.95751953 C43.88289806 75.1554901 -62.97202483 79.81181027 -123.69189453 146.02685547 Z " fill="#DB4365" transform="translate(799.0625,336.75)"/>
<path d="M0 0 C13.38114554 11.44067731 20.73812461 26.43578054 22.2734375 43.8984375 C22.970479 60.59592883 17.94630633 76.45976236 6.9609375 89.1484375 C-5.80996977 102.60045982 -20.90580384 109.7712933 -39.5390625 110.3359375 C-57.45680322 110.19755987 -72.07505863 103.50653998 -84.7265625 90.8984375 C-85.36464844 90.28355469 -86.00273438 89.66867187 -86.66015625 89.03515625 C-97.77433434 77.47542091 -102.27040427 61.55513909 -102.07617188 45.84472656 C-101.49064158 29.37866526 -95.1166061 15.10106421 -83.55078125 3.5234375 C-59.84829679 -18.50708748 -25.56195197 -19.70247874 0 0 Z " fill="#BA309E" transform="translate(1112.7265625,279.1015625)"/>
<path d="M0 0 C0.66 0.33 1.32 0.66 2 1 C-8.89 11.89 -19.78 22.78 -31 34 C-31 30.49777689 -30.60141984 30.20549711 -28.2890625 27.77734375 C-27.70842041 27.16109131 -27.12777832 26.54483887 -26.52954102 25.90991211 C-25.90104248 25.25901611 -25.27254395 24.60812012 -24.625 23.9375 C-23.98812256 23.2679126 -23.35124512 22.5983252 -22.69506836 21.90844727 C-20.80609083 19.9296655 -18.90576064 17.96261079 -17 16 C-16.49452637 15.47792969 -15.98905273 14.95585937 -15.46826172 14.41796875 C-10.52606313 9.33396425 -5.46654661 4.51584286 0 0 Z " fill="#AF2A79" transform="translate(630,398)"/>
<path d="M0 0 C0.66 0.33 1.32 0.66 2 1 C-7.9 10.9 -17.8 20.8 -28 31 C-28 28 -28 28 -25.98828125 25.73046875 C-25.10527344 24.89128906 -24.22226562 24.05210937 -23.3125 23.1875 C-19.14451722 19.18104376 -19.14451722 19.18104376 -15.375 14.8125 C-12.79008291 11.75141397 -9.9797137 9.27248327 -6.9375 6.6796875 C-4.49654333 4.56353555 -2.24804455 2.31829594 0 0 Z " fill="#4642C2" transform="translate(388,159)"/>
</svg>
